<svg width="272" height="75" viewBox="0 0 272 75" fill="none" xmlns="http://www.w3.org/2000/svg">
<circle cx="36.5" cy="30.5" r="30.5" fill="#63BBC5"/>
<path d="M83.396 36.524C83.396 33.836 82.4067 32.492 80.428 32.492C79.9987 32.492 79.5693 32.548 79.14 32.66C78.7293 32.772 78.3933 32.912 78.132 33.08V40.668C78.3373 40.7053 78.5987 40.7427 78.916 40.78C79.2333 40.7987 79.5787 40.808 79.952 40.808C81.0907 40.808 81.9493 40.416 82.528 39.632C83.1067 38.848 83.396 37.812 83.396 36.524ZM87.652 36.636C87.652 37.812 87.4747 38.876 87.12 39.828C86.784 40.78 86.2893 41.592 85.636 42.264C84.9827 42.936 84.18 43.4587 83.228 43.832C82.276 44.1867 81.1933 44.364 79.98 44.364C79.476 44.364 78.944 44.336 78.384 44.28C77.8427 44.2427 77.3013 44.1867 76.76 44.112C76.2373 44.0373 75.7333 43.9533 75.248 43.86C74.7627 43.748 74.3333 43.636 73.96 43.524V22.944L78.132 22.272V29.608C78.5987 29.4027 79.084 29.244 79.588 29.132C80.092 29.02 80.6333 28.964 81.212 28.964C82.2573 28.964 83.1813 29.1507 83.984 29.524C84.7867 29.8787 85.4587 30.392 86 31.064C86.5413 31.736 86.952 32.548 87.232 33.5C87.512 34.4333 87.652 35.4787 87.652 36.636ZM103.43 43.496C102.721 43.7013 101.806 43.888 100.686 44.056C99.5664 44.2427 98.3904 44.336 97.1584 44.336C95.9078 44.336 94.8624 44.168 94.0224 43.832C93.2011 43.496 92.5478 43.0293 92.0624 42.432C91.5771 41.816 91.2318 41.088 91.0264 40.248C90.8211 39.408 90.7184 38.484 90.7184 37.476V29.272H94.8904V36.972C94.8904 38.316 95.0678 39.2867 95.4224 39.884C95.7771 40.4813 96.4398 40.78 97.4104 40.78C97.7091 40.78 98.0264 40.7707 98.3624 40.752C98.6984 40.7147 98.9971 40.6773 99.2584 40.64V29.272H103.43V43.496ZM111.575 41.004C112.34 41.004 112.881 40.9293 113.199 40.78C113.516 40.6307 113.675 40.3413 113.675 39.912C113.675 39.576 113.469 39.2867 113.059 39.044C112.648 38.7827 112.023 38.4933 111.183 38.176C110.529 37.9333 109.932 37.6813 109.391 37.42C108.868 37.1587 108.42 36.8507 108.047 36.496C107.673 36.1227 107.384 35.684 107.179 35.18C106.973 34.676 106.871 34.0693 106.871 33.36C106.871 31.9787 107.384 30.8867 108.411 30.084C109.437 29.2813 110.847 28.88 112.639 28.88C113.535 28.88 114.393 28.964 115.215 29.132C116.036 29.2813 116.689 29.4493 117.175 29.636L116.447 32.884C115.961 32.716 115.429 32.5667 114.851 32.436C114.291 32.3053 113.656 32.24 112.947 32.24C111.64 32.24 110.987 32.604 110.987 33.332C110.987 33.5 111.015 33.6493 111.071 33.78C111.127 33.9107 111.239 34.0413 111.407 34.172C111.575 34.284 111.799 34.4147 112.079 34.564C112.377 34.6947 112.751 34.844 113.199 35.012C114.113 35.348 114.869 35.684 115.467 36.02C116.064 36.3373 116.531 36.692 116.867 37.084C117.221 37.4573 117.464 37.8773 117.595 38.344C117.744 38.8107 117.819 39.352 117.819 39.968C117.819 41.424 117.268 42.5253 116.167 43.272C115.084 44.0187 113.544 44.392 111.547 44.392C110.24 44.392 109.148 44.28 108.271 44.056C107.412 43.832 106.815 43.6453 106.479 43.496L107.179 40.108C107.888 40.388 108.616 40.612 109.363 40.78C110.109 40.9293 110.847 41.004 111.575 41.004ZM125.109 44H120.937V29.272H125.109V44ZM125.501 25.016C125.501 25.7813 125.249 26.388 124.745 26.836C124.259 27.2653 123.681 27.48 123.009 27.48C122.337 27.48 121.749 27.2653 121.245 26.836C120.759 26.388 120.517 25.7813 120.517 25.016C120.517 24.2507 120.759 23.6533 121.245 23.224C121.749 22.776 122.337 22.552 123.009 22.552C123.681 22.552 124.259 22.776 124.745 23.224C125.249 23.6533 125.501 24.2507 125.501 25.016ZM129.03 29.776C129.74 29.5707 130.654 29.384 131.774 29.216C132.894 29.0293 134.07 28.936 135.302 28.936C136.553 28.936 137.589 29.104 138.41 29.44C139.25 29.7573 139.913 30.2147 140.398 30.812C140.884 31.4093 141.229 32.1187 141.434 32.94C141.64 33.7613 141.742 34.676 141.742 35.684V44H137.57V36.188C137.57 34.844 137.393 33.892 137.038 33.332C136.684 32.772 136.021 32.492 135.05 32.492C134.752 32.492 134.434 32.5107 134.098 32.548C133.762 32.5667 133.464 32.5947 133.202 32.632V44H129.03V29.776ZM144.819 36.748C144.819 35.4413 145.015 34.3027 145.407 33.332C145.817 32.3427 146.349 31.5213 147.003 30.868C147.656 30.2147 148.403 29.72 149.243 29.384C150.101 29.048 150.979 28.88 151.875 28.88C153.965 28.88 155.617 29.524 156.831 30.812C158.044 32.0813 158.651 33.9573 158.651 36.44C158.651 36.6827 158.641 36.9533 158.623 37.252C158.604 37.532 158.585 37.784 158.567 38.008H149.103C149.196 38.8667 149.597 39.548 150.307 40.052C151.016 40.556 151.968 40.808 153.163 40.808C153.928 40.808 154.675 40.7427 155.403 40.612C156.149 40.4627 156.756 40.2853 157.223 40.08L157.783 43.468C157.559 43.58 157.26 43.692 156.887 43.804C156.513 43.916 156.093 44.0093 155.627 44.084C155.179 44.1773 154.693 44.252 154.171 44.308C153.648 44.364 153.125 44.392 152.603 44.392C151.277 44.392 150.12 44.196 149.131 43.804C148.16 43.412 147.348 42.88 146.695 42.208C146.06 41.5173 145.584 40.7053 145.267 39.772C144.968 38.8387 144.819 37.8307 144.819 36.748ZM154.619 35.152C154.6 34.7973 154.535 34.452 154.423 34.116C154.329 33.78 154.171 33.4813 153.947 33.22C153.741 32.9587 153.471 32.744 153.135 32.576C152.817 32.408 152.416 32.324 151.931 32.324C151.464 32.324 151.063 32.408 150.727 32.576C150.391 32.7253 150.111 32.9307 149.887 33.192C149.663 33.4533 149.485 33.7613 149.355 34.116C149.243 34.452 149.159 34.7973 149.103 35.152H154.619ZM166.098 41.004C166.863 41.004 167.405 40.9293 167.722 40.78C168.039 40.6307 168.198 40.3413 168.198 39.912C168.198 39.576 167.993 39.2867 167.582 39.044C167.171 38.7827 166.546 38.4933 165.706 38.176C165.053 37.9333 164.455 37.6813 163.914 37.42C163.391 37.1587 162.943 36.8507 162.57 36.496C162.197 36.1227 161.907 35.684 161.702 35.18C161.497 34.676 161.394 34.0693 161.394 33.36C161.394 31.9787 161.907 30.8867 162.934 30.084C163.961 29.2813 165.37 28.88 167.162 28.88C168.058 28.88 168.917 28.964 169.738 29.132C170.559 29.2813 171.213 29.4493 171.698 29.636L170.97 32.884C170.485 32.716 169.953 32.5667 169.374 32.436C168.814 32.3053 168.179 32.24 167.47 32.24C166.163 32.24 165.51 32.604 165.51 33.332C165.51 33.5 165.538 33.6493 165.594 33.78C165.65 33.9107 165.762 34.0413 165.93 34.172C166.098 34.284 166.322 34.4147 166.602 34.564C166.901 34.6947 167.274 34.844 167.722 35.012C168.637 35.348 169.393 35.684 169.99 36.02C170.587 36.3373 171.054 36.692 171.39 37.084C171.745 37.4573 171.987 37.8773 172.118 38.344C172.267 38.8107 172.342 39.352 172.342 39.968C172.342 41.424 171.791 42.5253 170.69 43.272C169.607 44.0187 168.067 44.392 166.07 44.392C164.763 44.392 163.671 44.28 162.794 44.056C161.935 43.832 161.338 43.6453 161.002 43.496L161.702 40.108C162.411 40.388 163.139 40.612 163.886 40.78C164.633 40.9293 165.37 41.004 166.098 41.004ZM179.688 41.004C180.453 41.004 180.995 40.9293 181.312 40.78C181.629 40.6307 181.788 40.3413 181.788 39.912C181.788 39.576 181.583 39.2867 181.172 39.044C180.761 38.7827 180.136 38.4933 179.296 38.176C178.643 37.9333 178.045 37.6813 177.504 37.42C176.981 37.1587 176.533 36.8507 176.16 36.496C175.787 36.1227 175.497 35.684 175.292 35.18C175.087 34.676 174.984 34.0693 174.984 33.36C174.984 31.9787 175.497 30.8867 176.524 30.084C177.551 29.2813 178.96 28.88 180.752 28.88C181.648 28.88 182.507 28.964 183.328 29.132C184.149 29.2813 184.803 29.4493 185.288 29.636L184.56 32.884C184.075 32.716 183.543 32.5667 182.964 32.436C182.404 32.3053 181.769 32.24 181.06 32.24C179.753 32.24 179.1 32.604 179.1 33.332C179.1 33.5 179.128 33.6493 179.184 33.78C179.24 33.9107 179.352 34.0413 179.52 34.172C179.688 34.284 179.912 34.4147 180.192 34.564C180.491 34.6947 180.864 34.844 181.312 35.012C182.227 35.348 182.983 35.684 183.58 36.02C184.177 36.3373 184.644 36.692 184.98 37.084C185.335 37.4573 185.577 37.8773 185.708 38.344C185.857 38.8107 185.932 39.352 185.932 39.968C185.932 41.424 185.381 42.5253 184.28 43.272C183.197 44.0187 181.657 44.392 179.66 44.392C178.353 44.392 177.261 44.28 176.384 44.056C175.525 43.832 174.928 43.6453 174.592 43.496L175.292 40.108C176.001 40.388 176.729 40.612 177.476 40.78C178.223 40.9293 178.96 41.004 179.688 41.004ZM195.154 24.372C198.047 24.372 200.269 24.8853 201.818 25.912C203.367 26.92 204.142 28.5813 204.142 30.896C204.142 33.2293 203.358 34.9187 201.79 35.964C200.222 36.9907 197.982 37.504 195.07 37.504H193.698V44H189.33V24.876C190.282 24.6893 191.29 24.5587 192.354 24.484C193.418 24.4093 194.351 24.372 195.154 24.372ZM195.434 28.096C195.117 28.096 194.799 28.1053 194.482 28.124C194.183 28.1427 193.922 28.1613 193.698 28.18V33.78H195.07C196.582 33.78 197.721 33.5747 198.486 33.164C199.251 32.7533 199.634 31.988 199.634 30.868C199.634 30.3267 199.531 29.8787 199.326 29.524C199.139 29.1693 198.859 28.8893 198.486 28.684C198.131 28.46 197.693 28.3107 197.17 28.236C196.647 28.1427 196.069 28.096 195.434 28.096ZM205.959 36.748C205.959 35.4413 206.155 34.3027 206.547 33.332C206.958 32.3427 207.49 31.5213 208.143 30.868C208.797 30.2147 209.543 29.72 210.383 29.384C211.242 29.048 212.119 28.88 213.015 28.88C215.106 28.88 216.758 29.524 217.971 30.812C219.185 32.0813 219.791 33.9573 219.791 36.44C219.791 36.6827 219.782 36.9533 219.763 37.252C219.745 37.532 219.726 37.784 219.707 38.008H210.243C210.337 38.8667 210.738 39.548 211.447 40.052C212.157 40.556 213.109 40.808 214.303 40.808C215.069 40.808 215.815 40.7427 216.543 40.612C217.29 40.4627 217.897 40.2853 218.363 40.08L218.923 43.468C218.699 43.58 218.401 43.692 218.027 43.804C217.654 43.916 217.234 44.0093 216.767 44.084C216.319 44.1773 215.834 44.252 215.311 44.308C214.789 44.364 214.266 44.392 213.743 44.392C212.418 44.392 211.261 44.196 210.271 43.804C209.301 43.412 208.489 42.88 207.835 42.208C207.201 41.5173 206.725 40.7053 206.407 39.772C206.109 38.8387 205.959 37.8307 205.959 36.748ZM215.759 35.152C215.741 34.7973 215.675 34.452 215.563 34.116C215.47 33.78 215.311 33.4813 215.087 33.22C214.882 32.9587 214.611 32.744 214.275 32.576C213.958 32.408 213.557 32.324 213.071 32.324C212.605 32.324 212.203 32.408 211.867 32.576C211.531 32.7253 211.251 32.9307 211.027 33.192C210.803 33.4533 210.626 33.7613 210.495 34.116C210.383 34.452 210.299 34.7973 210.243 35.152H215.759ZM228.639 41.088C229.049 41.088 229.441 41.0787 229.815 41.06C230.188 41.0413 230.487 41.0133 230.711 40.976V37.812C230.543 37.7747 230.291 37.7373 229.955 37.7C229.619 37.6627 229.311 37.644 229.031 37.644C228.639 37.644 228.265 37.672 227.911 37.728C227.575 37.7653 227.276 37.8493 227.015 37.98C226.753 38.1107 226.548 38.288 226.399 38.512C226.249 38.736 226.175 39.016 226.175 39.352C226.175 40.0053 226.389 40.4627 226.819 40.724C227.267 40.9667 227.873 41.088 228.639 41.088ZM228.303 28.88C229.535 28.88 230.561 29.02 231.383 29.3C232.204 29.58 232.857 29.9813 233.343 30.504C233.847 31.0267 234.201 31.6613 234.407 32.408C234.612 33.1547 234.715 33.9853 234.715 34.9V43.58C234.117 43.7107 233.287 43.86 232.223 44.028C231.159 44.2147 229.871 44.308 228.359 44.308C227.407 44.308 226.539 44.224 225.755 44.056C224.989 43.888 224.327 43.6173 223.767 43.244C223.207 42.852 222.777 42.348 222.479 41.732C222.18 41.116 222.031 40.36 222.031 39.464C222.031 38.6053 222.199 37.8773 222.535 37.28C222.889 36.6827 223.356 36.2067 223.935 35.852C224.513 35.4973 225.176 35.2453 225.923 35.096C226.669 34.928 227.444 34.844 228.247 34.844C228.788 34.844 229.264 34.872 229.675 34.928C230.104 34.9653 230.449 35.0213 230.711 35.096V34.704C230.711 33.9947 230.496 33.4253 230.067 32.996C229.637 32.5667 228.891 32.352 227.827 32.352C227.117 32.352 226.417 32.408 225.727 32.52C225.036 32.6133 224.439 32.7533 223.935 32.94L223.403 29.58C223.645 29.5053 223.944 29.4307 224.299 29.356C224.672 29.2627 225.073 29.188 225.503 29.132C225.932 29.0573 226.38 29.0013 226.847 28.964C227.332 28.908 227.817 28.88 228.303 28.88ZM242.659 34.592C243.07 34.144 243.49 33.6773 243.919 33.192C244.367 32.7067 244.797 32.2307 245.207 31.764C245.618 31.2787 246.001 30.8213 246.355 30.392C246.729 29.9627 247.046 29.5893 247.307 29.272H252.263C251.274 30.4107 250.303 31.5027 249.351 32.548C248.418 33.5747 247.391 34.6387 246.271 35.74C246.831 36.244 247.41 36.8507 248.007 37.56C248.605 38.2507 249.183 38.9693 249.743 39.716C250.303 40.4627 250.817 41.2093 251.283 41.956C251.75 42.7027 252.142 43.384 252.459 44H247.671C247.373 43.5147 247.027 42.9827 246.635 42.404C246.262 41.8067 245.861 41.2187 245.431 40.64C245.002 40.0427 244.545 39.4733 244.059 38.932C243.593 38.3907 243.126 37.9333 242.659 37.56V44H238.487V22.944L242.659 22.272V34.592Z" fill="#053E4F"/>
<path d="M30.2517 28.15L20.6474 35.1305L1 70H36.65V35.1305L30.2517 28.15Z" fill="#1E496B"/>
<path d="M52.6523 35.1305L43.0486 28.15L36.6501 35.1305H36.6499V70H72.2999L52.6523 35.1305Z" fill="#1A3A4C"/>
<path d="M36.6499 35.9V8L21.1499 35.9L30.4526 29.0425L36.6499 35.9Z" fill="#F0F1F1"/>
<path d="M36.6499 35.9H36.6502L43.4675 29.0425L53.6999 35.9L36.6499 8V35.9Z" fill="#B5B5B4"/>
<path d="M0.5 70L12 49.5C29 68.5 53 60.5 60.5 49.5L90.5 75L0.5 70Z" fill="#F0F0F5"/>
</svg>
